<svg xmlns="http://www.w3.org/2000/svg" width="453" height="52" fill="none"><path fill="#006937" d="M34.1 2.8c5 2.5 9.1 7 11.3 12 1 2.2 1.8 4.6 2.1 7.1h-8.2c-.2 0-.1-.2-.2-.4-.3-2.2-.8-4.3-1.5-6.4-.6-1.8-1.4-3.5-2.4-5.2-1.3-2.3-3-4.3-5.3-5.9-1.5-1-3.1-1.8-4.9-2-1.1-.1-2.2-.1-3.2.1-2.3.3-4.1 1.6-5.9 3.1-1.7 1.6-2.8 3.2-3.9 5.1-.4.6-.6 1.4-1 2-.6 1.3-1 2.8-1.5 4.2-.2.8-.4 1.6-.5 2.4-.3 1-.3 1.9-.5 2.9l-.3.1H.1c-.1-.1 0-.3 0-.4.2-1.5.6-3 1.1-4.5.4-1.3.9-2.5 1.6-3.7 1.3-2.6 3.1-5 5.3-7C10.8 3.8 14 2.1 17.4 1 19.2.5 21.1.2 23 .1c1.3 0 2.6.1 3.8.2 2.7.6 5 1.5 7.3 2.5Z"/><path fill="#006937" d="M28 11.6c.1.2-.1.3 0 .5-.2 3.9-.5 7.8-.6 11.7l-.1.1v2c-.2 2.8-.1 5.6-.1 8.5.1 1.8 0 3.8.1 5.7v.1c-.1 2.1.2 4 .3 6 .2.8-.2 1.7.7 2.2.6.1 1.1-.3 1.6-.7.8-.5 1.5-1.2 2.3-1.8.7-.7 1.2-1.3 1.8-2.1 1.1-1.5 2-3.2 2.8-4.8 0-.2.1-.3.2-.4 1.2-2.8 1.9-5.8 2.3-8.9l.1-.1h8.3c.1.2 0 .5-.1.7-.2 1.1-.4 2-.7 3.1-.7 2.4-1.7 4.8-3.1 6.9-.7 1.1-1.5 2.3-2.5 3.3-1.2 1.4-2.7 2.7-4.2 3.7-4 2.7-8.7 4.3-13.8 4.1-.9-.1-2-.1-2.9-.3V51c-.2.1-.3 0-.5 0-1.6-.4-3.2-.8-4.8-1.4-.9-.5-1.8-.8-2.7-1.4-1.1-.6-2.1-1.4-3.1-2.1-3.8-3.2-6.5-7.4-7.9-11.8-.5-1.4-.8-3-1.1-4.5l.1-.1h8.3c.3 1.6.5 3.3 1 4.9.5 1.7 1.1 3.4 1.8 5v.1c.2 0 .1.2.2.3 1.6 3.2 4.1 6.5 7.3 8.2.3.1.7.2 1-.1.3-.3.3-.7.3-1.2.1-1.7.2-3.4.2-5.2.2-.5 0-1 .1-1.5 0-2.8.2-5.5 0-8.4.1-1.7 0-3.4-.1-5.2-.1-.4 0-.8 0-1.2-.1-3-.3-5.7-.4-8.7 0-.3-.1-.6 0-.9-.1-1-.2-2.1-.2-3.1 0-.4-.1-.8-.1-1.3.6-.1 1.2 0 1.8-.1l6.4.3Z"/><path fill="#000" d="M137.8 10.7c.3.1.5.3.8.2.3-.1.6-.6 1-.5.5.3.4.9.5 1.3l.6 5.7c0 .1-.1.3-.3.4-.2.1-.4.1-.6-.1-.4-.5-.5-1.2-1-1.7-.5-.9-1.4-1.7-2.2-2.5-1.7-1.5-3.8-2.4-6.1-2.5-.6 0-1.3 0-1.9.1-1 .1-1.9.4-2.7.9-1.1.6-1.9 1.7-2.2 2.8-.4 1.1-.2 2.5.2 3.6.8 1 1.6 2.1 2.8 2.6 1 .5 2.1.9 3.2 1.2.8.2 1.6.5 2.3.7 2.5.8 5 1.6 6.9 3.6 1 1 1.7 2.2 2 3.6.1.4.2.7.2 1.1.1.5.1 1.1.1 1.6v.6c-.1.1 0 .3-.1.4-.3 2.7-2.1 5.3-4.6 6.5-.2.1-.4.2-.7.3-.3.1-.6.2-.8.3-.5.2-1 .3-1.5.5-.4.1-.9.2-1.3.3-2.2.3-4.6.5-6.8 0-1.6-.4-3.1-.8-4.5-1.7-.5-.4-.3-1-.5-1.5-.3-1.7-.7-3.4-1-5.2-.1-.2 0-.5.2-.6.2 0 .5-.1.8 0 .3.4.3 1 .6 1.4.3.6.7 1.2 1.1 1.8 0 .1.1.2.2.3 1.4 1.6 3.2 2.8 5 3.5.4.1.8.2 1.3.3.8.2 1.8.3 2.7.2.4.1.8-.1 1.2-.1 1.7-.2 3.1-1.2 4.3-2.5 1-1.2 1.5-2.7 1.3-4.3-.1-.6-.3-1.3-.7-1.8-.8-1.5-2.2-2.5-3.7-3-.3-.2-.7-.3-1-.4-1.8-.6-3.7-1.1-5.5-1.8-.9-.3-1.7-.7-2.5-1.2-1.7-.9-3.3-2.5-3.9-4.3-.6-1.7-.7-3.7-.3-5.4.2-.8.5-1.6 1.1-2.3.1-.2.4-.5.5-.7 1.4-1.6 3.4-2.3 5.4-2.8 1.5-.3 3.1-.3 4.7-.2 2.2.1 3.9.6 5.4 1.3ZM175.2 10.2v.4c-.7.6-1.5.9-2.1 1.6-.5.6-.9 1.3-.9 2.1v17.6c-.1 0 0 .1 0 .1v4.8c0 .5.2 1.1.4 1.5.1 0 .1.1.1.2.8 1 2 1.4 3 2 .2.2.5.4.5.7 0 .2-.2.4-.3.5h-.2c-1.8 0-3.6-.2-5.4-.2-1.3 0-2.6.2-3.9.1-.2 0-.3-.1-.4-.2-.1-.2 0-.5 0-.7.8-.8 1.9-1.2 2.5-2.1.5-.6.5-1.5.5-2.3l-.1-.1v-9.3c-.1-.4-.2-.9-.6-1h-15.8c-.3 0-.6.1-.8.4-.1.2-.2.4-.2.6V37.1c.1 2 2.2 2.6 3.6 3.4.3.2.7.5.6 1-.3.4-.9.2-1.4.2-2.4-.1-5-.2-7.4-.1-.7 0-1.4.1-2 .1-.3-.2-.3-.6-.3-.9.4-.7 1.2-.8 1.8-1.2 1.6-1 1.8-2.8 1.7-4.6V15.7c0-1 .1-2.1-.5-2.9-.3-.5-.8-.9-1.3-1.2-.6-.4-1.3-.6-1.9-1-.2-.1-.3-.3-.3-.5.1-.1.1-.3.2-.3.6-.2 1.3 0 2-.1 1.4.1 2.8.1 4.1.1 1.2 0 2.4-.2 3.6-.1.2 0 .4.1.5.3.1.2 0 .4-.1.5-.8.6-1.7.9-2.4 1.8-.4.5-.7 1.2-.7 1.9V23c.1.5.3 1 .8 1.2h13.7c.8 0 1.7.1 2.5-.1.6-.5.5-1.4.5-2.1v-4.6c-.2-1.7.5-3.8-.9-5.1-.6-.6-1.4-1-2.1-1.4-.3-.2-.5-.5-.4-.8 0-.2.2-.2.3-.3.4-.1.7 0 1.1-.1 1.4 0 3 .2 4.5.1.3.1.6-.1.9 0 .8-.1 1.7-.3 2.5.1.4.1.4.1.5.3ZM118 10.2c.2.9-.9 1.4-1.4 2-.7.8-1.2 1.7-1.2 2.7v14c.1.9 0 1.9-.1 2.9-.1.8-.3 1.6-.5 2.4-.3.8-.4 1.6-.9 2.3-.1.3-.2.5-.3.7-.9 1.5-2.3 2.9-3.8 3.6-2.1 1.1-4.6 1.3-7.2 1.2h-.1c-.7 0-1.5-.1-2.2-.2-1.4-.2-2.7-.6-3.9-1.1-.4-.2-.8-.4-1.1-.6-1.1-.7-1.9-1.7-2.6-2.7 0-.1-.1-.1-.1-.1-.4-.7-.7-1.5-.9-2.3-.1-.2-.1-.5-.2-.7-.2-.9-.3-1.8-.4-2.8 0 0 .1 0 0-.1s-.1-.2-.1-.4c0-.9-.1-1.8 0-2.7V19c0-1.7-.1-3.5 0-5.1 0-.1 0-.3-.1-.4-.1 0 0-.1-.1-.1-.8-1.2-2.2-1.4-3.3-2.3-.2-.2-.4-.6-.2-.8.4-.3.9-.3 1.3-.2h1.5c1.9.2 3.8-.1 5.7-.1.6 0 1.3-.2 1.7.3.1.5-.3.9-.7 1.2-.9.6-2.2 1.3-2.2 2.5V29.3c0 .5 0 1 .1 1.5.1 1.4.5 2.8 1 4.1.5 1.1 1.2 2.2 2.1 3.1.8.7 1.7 1.4 2.7 1.7.9.4 1.9.6 3 .7 3 .2 6-.5 7.9-3 .9-1.3 1.4-2.7 1.7-4.2V33c.1-.7.2-1.5.2-2.3V19.6c-.1-1.6.1-3.2-.1-4.9-.2-1.1-1.1-1.9-2-2.4-.7-.5-1.7-.7-2.1-1.5-.1-.2 0-.4.1-.6.2-.2.6-.2.9-.2.6-.1 1.1.1 1.7.1 1.5.1 3.1.2 4.5 0 .7-.2 1.4-.5 1.7.1ZM81 12.3c1.8 1.6 2.2 3.9 2.1 6.2-.3 2.3-1.5 4.4-3.5 5.9-.7.5-1.4.9-2.1 1.2l1.2 1.8c2.1 3.1 4.2 6.2 6.3 9.4.2.3.5.6.7.9.5.5.9 1 1.4 1.5.7.6 1.4 1.1 2.2 1.4.1 0 .2 0 .3.1.3.1 1 .1 1 .6 0 .3-.4.3-.6.4-1.1.2-2.4.2-3.6.1-1.5-.1-2.7-.8-3.6-2-1.3-1.7-2.2-3.4-3.4-5.1-.3-.4-.5-.8-.8-1.3-.9-1.3-1.7-2.7-2.6-4.1-.7-.9-1-2.3-2.3-2.5-1.3-.1-2.7-.1-4.1-.1-.3 0-.6.2-.8.5v9.7c0 .4.1.8.2 1.2.3.9 1.1 1.7 2 1.9.7.2 1.5.4 2.2.7.2.1.3.3.3.5 0 .1 0 .3-.2.4-.9.1-1.8-.1-2.7-.1-.8-.1-1.7 0-2.5 0H68c-.3 0-.6 0-.9.1-.9-.1-1.9.1-2.7.1-.7 0-1.4.1-2.1 0-.2 0-.3-.2-.4-.3 0-.2 0-.5.2-.6.2-.2.4-.2.5-.4.3-.1.6-.3.9-.5 1.4-.9 1.7-2.3 1.7-3.8V18.6c0-1.5 0-3.2-.1-4.7-.1-.9-.7-2-1.7-2.2-.6-.2-1.2-.2-1.8-.4-.2-.1-.3-.4-.3-.6.1-.3.5-.5.8-.5.5 0 1.1.1 1.7.2H68c.4-.1.7 0 1.1-.1 1.4 0 2.7-.1 4-.1 2.8-.2 5.7.2 7.9 2.1Zm-8.7-1.2c-1.1-.1-2.5-.2-3.6.1-.6.3-.7 1-.7 1.6v11.4c.1.2.2.3.4.3 1.3.4 2.7.2 4 .2.7 0 1.5 0 2.1-.2.1-.1.2 0 .3-.1.7-.1 1.3-.4 1.8-.8.2-.1.4-.3.6-.5 1.5-1.4 1.9-3.4 1.8-5.4-.1-1.8-.7-3.6-2.1-4.8-.3-.1-.4-.4-.7-.5-.5-.4-1.2-.6-1.8-.9-.6-.1-1.3-.3-2.1-.4ZM197.8 30.1c0 7.1 4.6 10.3 10.6 10.3 8.4 0 10.3-5.5 10.3-10.7V15.3c0-4.5-4.1-2.7-4.1-4.4 0-.2.3-.4.4-.4 1.7 0 3.5.1 5.2.1.8 0 1.6-.1 2.4-.1.2 0 .6.2.6.5 0 1.2-2.6.3-2.6 4.4v13.7c0 2.2.5 13.1-12.4 13.1-11.7 0-13.9-6.5-13.9-13.4V14c0-2.6-3.6-1.6-3.6-3 0-.3.8-.4 1-.4 1.2 0 2.3.1 3.5.1 1.4 0 2.8-.1 4.2-.1.2 0 1.4-.1 1.4.4 0 1.2-3 0-3 3.2v15.9ZM230.6 19.3c0-9.2-5.4-6.7-5.4-8.3 0-.3.4-.4.7-.4.7 0 1.4.1 2.1.1.7 0 1.4-.1 2-.1.5 0 .9.7 1.2 1l21.2 23.6c.3.3.4.5.5.5.1 0 .1-.1.1-.5V16.6c0-5.8-4.9-4.1-4.9-5.6 0-.3.2-.4.5-.4 1.3 0 2.6.1 4 .1 1.5 0 3.4-.1 4.5-.1.3 0 .4.1.4.4 0 1.2-2.6.4-2.6 3.6v25.7c0 1.3 0 1.9-.4 1.9-.3 0-.8-.2-1.7-1.2l-19.1-21.5c-.1-.1-.6-.8-.9-.8-.2 0-.3.1-.3 1v18.1c0 4 3.9 2.4 3.9 3.6 0 .2 0 .6-.5.6-1.1 0-2.3-.1-4.5-.1-1.6 0-3.9.1-4.2.1-.5 0-.6-.3-.6-.5 0-1.5 3.9.4 3.9-5.8V19.3h.1ZM264.6 14.4c0-3.2-3.6-2.4-3.6-3.3 0-.4.1-.5.4-.5 1.6 0 3.2.1 4.9.1 1.4 0 2.7-.1 4.1-.1.7 0 .8.1.8.4 0 1.1-3.2 0-3.2 3.4v23.8c0 3 4 2 4 3.3 0 .3-.1.4-.9.4-1 0-2.9-.1-4.8-.1-2.7 0-3.6.1-4.3.1-.8 0-.9-.2-.9-.7 0-1.3 3.5.2 3.5-4.2V14.4ZM277.3 14c-1.1-2.7-3.4-1.8-3.4-2.8 0-.4.2-.6.6-.6 1.4 0 2.8.1 4.1.1 1.2 0 2.9-.1 3.5-.1.3 0 .6.2.6.4 0 .6-1.8.7-1.8 2.3 0 .6.2 1.3.4 1.7l7.8 18.3c1 2.4 1.3 3.4 1.8 3.4.4 0 .6-.7.8-1.2l7.7-19.1c.3-.7.8-2.1.6-3 0-2-2.8-1.2-2.8-2.2 0-.5.2-.6.7-.6 1 0 2 .1 2.9.1 2.1 0 2.8-.1 3.4-.1.5 0 .8.2.8.6 0 1-1.2-.1-2.5 2.8l-11.1 26.2c-.5 1.1-.8 2.6-1.5 2.6s-1.2-1.9-1.6-2.8l-11-26ZM313.7 23.5c0 1.5-.1 1.5 1.7 1.5h4.8c4.6 0 3.4-3.6 4.5-3.6.3 0 .5.5.5.8 0 1.6-.1 3.1-.1 4.5 0 1.1.1 2.3.1 3.5 0 .4-.2.6-.5.6-1.4 0 .1-3.9-3.6-3.9h-6.6c-.9 0-.8.8-.8 1.4v8.1c0 2.6-.4 3.7 3.4 3.7 10.3 0 11.8-4.6 12.3-4.6.3 0 .4.4.4.5 0 1.6-1.2 3.1-2.2 4.3-1.4 1.6-2.4 1.5-4.3 1.5-3.4 0-6.8-.2-10.2-.1-1.8 0-3.6.1-5.4.1-.4 0-.7-.1-.7-.4.1-.5.5-.4 2-1.2 1.2-.5 1.2-1.8 1.2-3.8V16.2c0-2 0-4.1-2.4-4.5-.4-.1-1.3-.2-1.3-.7 0-.4.3-.5 1.6-.5 8.4 0 10.7.1 12.6.1.9 0 5-.1 6.3-.1.4 0 .4.4.4 1 0 4.9-.6 5.3-.9 5.3-1.1 0-.4-2.1-1.1-3.2-1.1-1.5-5.8-1.2-7.5-1.2-4.3 0-4.2-.2-4.2 2.8v8.3ZM338.2 13.7c0-1.7.9-1.6 2.5-1.6 4.4 0 8.5 1.8 8.5 7.2 0 5.5-4.3 6.3-6.2 6.3-2.1 0-4.9.2-4.9-.6V13.7h.1Zm8.8 12.2c3.1-1.2 5.6-4.2 5.6-7.7 0-8.6-9.8-7.7-10.5-7.7-2.3 0-4.8.1-7.4.1-2.3 0-2-.1-2.8-.1-.5 0-.9.3-.9.5 0 1.5 3.8-.3 3.8 4v22.5c0 3.4-3.2 2.7-3.2 3.9 0 .3.2.5.4.5 1.7 0 3.4-.1 5-.1 3.7 0 4.7.1 5.1.1.4 0 .8.1.8-.4 0-1.5-4.6-.1-4.6-3.9v-9.3c0-.4-.3-1.2 1.2-1.2 5 0 4.3-.1 5.9 2.3l4.9 7.7c1.7 2.5 3.4 4.8 6.7 4.8.4 0 2.9 0 2.9-.5 0-1.1-2.2.6-5.4-4.3L347 25.9ZM361.1 34.1c-.2-.9 0-1.4.5-1.4.6 0 .6.5.8 1.5.5 2 3.2 6.7 9.3 6.7 4.2 0 8.4-2.4 8.4-7 0-8.6-18.1-3.8-18.1-15.4 0-5.6 4.7-8.4 9.9-8.4 5.4 0 6.9 1.6 7.5 1.6.4 0 .5-.5.9-.5.3 0 .5.1.5.6l.7 6c0 .4 0 .7-.5.7s-.8-.9-.9-1.3c-1.3-3.8-4.6-5.8-8.5-5.8-3.5 0-7.3 1.7-7.3 5.8 0 8.3 18.1 3.5 18.1 15.7 0 3.7-2.6 9.3-12.7 9.3-3.3 0-7.3-1.6-7.5-2.4l-1.1-5.7ZM387.6 14.4c0-3.2-3.6-2.4-3.6-3.3 0-.4.1-.5.4-.5 1.6 0 3.2.1 4.9.1 1.4 0 2.7-.1 4.1-.1.7 0 .8.1.8.4 0 1.1-3.2 0-3.2 3.4v23.8c0 3 4 2 4 3.3 0 .3-.1.4-.9.4-1 0-2.9-.1-4.8-.1-2.7 0-3.6.1-4.3.1-.8 0-.9-.2-.9-.7 0-1.3 3.5.2 3.5-4.2V14.4ZM409.9 15c0-.3.2-2-.4-2h-7.2c-2.8 0-2.8.7-3.6 3.1-.1.4-.2 1-.8 1-.3 0-.4-.3-.4-.5l.5-4.3c0-.5 0-1.7.8-1.7 3.5 0 6.9.1 12.6.1 8.1 0 12.2-.1 13.1-.1 1 0 1.3.3 1.3 1.3l.2 3.5c0 .4.1 1-.5 1-1.7 0 .8-3.4-3.8-3.4h-6.4c-2 0-1.8-.2-1.8 2.2v22.6c0 3.7 3.6 2.3 3.6 3.6 0 .1 0 .5-.4.5-1.1 0-2.3-.1-3.6-.1-5 0-5.8.1-6.1.1-.4 0-.5-.1-.5-.6 0-1.1 3.5-.6 3.5-3.3V15h-.1ZM430.2 13.3c-1.2-1.9-3.3-1.4-3.3-2.1 0-.3.3-.7.6-.7 1.2 0 2 .1 5.1.1 1.5 0 2.7-.1 3.1-.1.3 0 .8 0 .8.4 0 .8-2.1.8-2.1 2.1 0 .7.5 1.4.8 1.8l5.4 8.6c.4.5.6.8.9.8.2 0 .5-.3.8-.9l4.6-7.4c.3-.5.9-1.2.9-2.4 0-2.2-3.3-1.2-3.3-2.3 0-.6.4-.7.9-.7 1.1 0 2.2.1 3.2.1 1.3 0 2.6-.1 3.9-.1.3 0 .5.3.5.5 0 .5-.8.7-1.1.8-1.2.7-1.8 2-2.5 3.1l-6.2 9.7c-.7 1.1-1.1 1.3-1.1 2v10.9c0 3.9 3.6 2.6 3.6 4 0 .4-.4.4-1 .4-.7 0-3.2-.1-4.9-.1-2 0-3.6.1-4 .1-.4 0-.7 0-.7-.5 0-1.2 3.4-.1 3.4-3.2V27.5c0-.8-.7-1.7-1-2.3l-7.3-11.9Z"/></svg>